# xmcd
# 
# Track frame offsets:
#     150
#     16030
#     36525
#     57770
#     81092
#     99075
#     119687
#     146000
#     174345
#     194580
#     210290
# 
# Disc length: 3167
# 
# Revision: 1
# Processed by: cddbd v1.5.2PL0 Copyright (c) Steve Scherf et al.
# Submitted via: fre:ac v1.1beta1pre5
# 
DISCID=8e0c5d0b
DTITLE=Nanette Workman - Vanilla Blues Café
DYEAR=2003
DGENRE=Blues
TTITLE0=Hound Dog Man
TTITLE1=Beau Romeo
TTITLE2=INeed Love
TTITLE3=Alive and Kickin' Around
TTITLE4=Your Love For My Tears
TTITLE5=I Lost My Baby
TTITLE6=Walking Into Clarksdale
TTITLE7=Do Right Woman, Do Right Man
TTITLE8=On The Inside
TTITLE9=Rock Steady
TTITLE10=Vaniila Blues Café
EXTD=
EXTT0=
EXTT1=
EXTT2=
EXTT3=
EXTT4=
EXTT5=
EXTT6=
EXTT7=
EXTT8=
EXTT9=
EXTT10=
PLAYORDER=
